:SAMPLES-PER-SECOND 30
:FRAME-RANGE 1-1086
:FULLY-SPECIFIED
:DEGREES
306
root  -98.3536 37.4584 16.9418 -0.800507 22.3263 3.98419
RightUpLeg  -16.3773 1.3302 -10.2961
RightLeg  74.1144 0.736197 1.91099
RightFoot  0.0146024 -0.797349 8.00762
RightToes  1.21801e-010 1.2921e-014 -6.02303e-014
Spine  -5.17319 1.72731 2.63461
Spine1  10.3024 2.3721 -7.00431
HEad  17.6072 33.8816 -5.86658
LeftShoulder1  0.392874 1.95811 -23.1289
LeftArm  -4.55859 8.27695 -52.5398
LeftForeArm  34.0508 7.7684 -12.44
LeftHand  -0.0152491 5.89349 3.07603
RightShoulder  1.99275 3.15488 24.7846
RightArm  -27.7316 7.9534 48.2109
RightForeArm  69.8023 -4.99143 1.60009
RightHand  0.133779 -6.44778 -16.4212
LeftUpLeg  -13.3101 -7.31063 -14.9656
LeftLeg  21.9355 11.0025 5.56616
LeftFoot  -5.39341 -0.539913 10.9833
LeftToes  3.79492e-011 -8.60219e-011 1.56273e-011
307
root  -97.8384 37.7013 18.3173 -1.36378 24.7898 2.90512
RightUpLeg  -19.0212 2.33587 -9.49359
RightLeg  70.3532 -0.613965 -2.74105
RightFoot  -1.27968 -0.45172 5.02799
RightToes  1.21801e-010 1.2921e-014 -6.02303e-014
Spine  -4.98047 0.780853 1.87769
Spine1  9.25992 0.980315 -5.30158
HEad  18.2024 32.8634 -4.75718
LeftShoulder1  0.589675 1.23471 -22.4015
LeftArm  -3.04386 7.40462 -53.8357
LeftForeArm  33.905 5.16616 -12.8656
LeftHand  -0.0254356 5.40868 3.26917
RightShoulder  1.7975 2.34275 25.7888
RightArm  -28.4653 3.88506 46.9426
RightForeArm  69.4421 -4.98747 1.49419
RightHand  0.17136 -6.74734 -16.0973
LeftUpLeg  -9.94309 -6.89644 -14.4034
LeftLeg  21.179 8.59797 4.76497
LeftFoot  -7.10611 -0.370169 11.1337
LeftToes  3.79492e-011 -8.60219e-011 1.56273e-011
308
root  -97.3332 37.8328 19.6589 -1.72385 27.6469 1.90947
RightUpLeg  -20.9438 2.82862 -8.99022
RightLeg  64.2489 -2.57964 -6.41015
RightFoot  -3.65009 -0.230477 3.05739
RightToes  1.21801e-010 1.2921e-014 -6.02303e-014
Spine  -4.95874 -0.371177 0.815223
Spine1  8.41343 -0.542106 -3.49842
HEad  17.6181 31.2769 -3.84724
LeftShoulder1  0.81441 0.373259 -21.6585
LeftArm  -0.47771 6.06624 -54.9268
LeftForeArm  33.1372 2.03311 -13.5205
LeftHand  -0.0297589 5.23185 3.97686
RightShoulder  1.54069 1.36197 26.9905
RightArm  -28.5509 0.00441709 45.5682
RightForeArm  68.0178 -5.08174 1.72927
RightHand  0.181225 -6.77811 -16.52
LeftUpLeg  -6.97857 -6.43126 -13.7071
LeftLeg  20.5687 6.10368 3.95629
LeftFoot  -9.0525 -0.185033 11.9518
LeftToes  3.79492e-011 -8.60219e-011 1.56273e-011
309
root  -96.8088 37.9329 20.9486 -1.98857 30.1383 0.789124
RightUpLeg  -22.2736 3.18101 -8.32038
RightLeg  55.8871 -5.66567 -9.33145
RightFoot  -5.5102 -0.144585 2.10261
RightToes  1.21801e-010 1.2921e-014 -6.02303e-014
Spine  -5.12566 -1.39644 0.1484
Spine1  7.8613 -1.81961 -1.97408
HEad  16.4138 29.2509 -3.17756
LeftShoulder1  1.03814 -0.535559 -20.8669
LeftArm  3.08044 4.14069 -56.037
LeftForeArm  32.4358 -0.957652 -13.8973
LeftHand  -0.0345689 5.08177 4.22215
RightShoulder  1.29405 0.500456 27.9773
RightArm  -28.693 -3.68136 44.4598
RightForeArm  66.3331 -5.16963 1.87531
RightHand  0.146124 -6.55476 -16.1937
LeftUpLeg  -4.47381 -6.37654 -12.7671
LeftLeg  20.2511 3.95108 3.42994
LeftFoot  -10.9074 0.0204801 11.9301
LeftToes  3.79492e-011 -8.60219e-011 1.56273e-011
310
root  -96.2372 38.041 22.1869 -2.27411 31.9224 -0.399918
RightUpLeg  -22.808 3.83498 -7.51557
RightLeg  45.3487 -9.00074 -9.91971
RightFoot  -5.35155 -0.18164 2.77489
RightToes  1.21801e-010 1.2921e-014 -6.02303e-014
Spine  -5.66853 -2.13805 0.315423
Spine1  7.90377 -2.65359 -0.812434
HEad  15.0206 26.9401 -2.54446
LeftShoulder1  1.24395 -1.42843 -20.069
LeftArm  6.60062 1.84747 -57.1659
LeftForeArm  31.6412 -3.50657 -13.8817
LeftHand  -0.045042 4.74244 4.17344
RightShoulder  1.1059 -0.126472 28.7491
RightArm  -29.3741 -7.1034 43.8182
RightForeArm  65.1906 -5.17686 1.66919
RightHand  0.129624 -6.45302 -15.9544
LeftUpLeg  -1.81203 -6.44134 -11.6868
LeftLeg  19.1658 2.54781 3.07912
LeftFoot  -12.418 0.187343 11.9172
LeftToes  3.79492e-011 -8.60219e-011 1.56273e-011
311
root  -95.6321 38.0899 23.4111 -2.51297 32.7192 -1.1748
RightUpLeg  -22.6932 4.27725 -6.76674
RightLeg  33.9241 -10.9693 -8.07405
RightFoot  -3.46766 -0.275652 3.66005
RightToes  1.21801e-010 1.2921e-014 -6.02303e-014
Spine  -6.33599 -2.65007 0.592723
Spine1  8.57735 -3.19547 -0.0692743
HEad  13.7826 24.8905 -1.73715
LeftShoulder1  1.32779 -1.89741 -19.2579
LeftArm  10.8209 -0.447657 -58.2075
LeftForeArm  28.7085 -6.08204 -13.6374
LeftHand  -0.0522348 4.47213 3.99996
RightShoulder  1.00945 -0.447358 29.2703
RightArm  -30.6703 -9.79483 43.7655
RightForeArm  65.3914 -5.06579 1.05694
RightHand  0.13659 -6.49141 -16.1179
LeftUpLeg  1.01255 -5.98014 -10.8822
LeftLeg  17.8397 1.67097 2.81225
LeftFoot  -13.7973 0.338781 11.8753
LeftToes  3.79492e-011 -8.60219e-011 1.56273e-011
